<?xml version="1.0" standalone="no"?><svg xmlns="http://www.w3.org/2000/svg" viewBox="0 0 1440 320"><path fill="#0099ff" fill-opacity="1" d="M0,192L18.5,176C36.9,160,74,128,111,149.3C147.7,171,185,245,222,245.3C258.5,245,295,171,332,133.3C369.2,96,406,96,443,128C480,160,517,224,554,208C590.8,192,628,96,665,69.3C701.5,43,738,85,775,112C812.3,139,849,149,886,144C923.1,139,960,117,997,138.7C1033.8,160,1071,224,1108,218.7C1144.6,213,1182,139,1218,112C1255.4,85,1292,107,1329,138.7C1366.2,171,1403,213,1422,234.7L1440,256L1440,0L1421.5,0C1403.1,0,1366,0,1329,0C1292.3,0,1255,0,1218,0C1181.5,0,1145,0,1108,0C1070.8,0,1034,0,997,0C960,0,923,0,886,0C849.2,0,812,0,775,0C738.5,0,702,0,665,0C627.7,0,591,0,554,0C516.9,0,480,0,443,0C406.2,0,369,0,332,0C295.4,0,258,0,222,0C184.6,0,148,0,111,0C73.8,0,37,0,18,0L0,0Z"></path></svg>