<?xml version="1.0" standalone="no"?><svg xmlns="http://www.w3.org/2000/svg" viewBox="0 0 1440 320"><path fill="#0099ff" fill-opacity="0.25" d="M0,96L18.5,90.7C36.9,85,74,75,111,85.3C147.7,96,185,128,222,128C258.5,128,295,96,332,96C369.2,96,406,128,443,154.7C480,181,517,203,554,208C590.8,213,628,203,665,208C701.5,213,738,235,775,229.3C812.3,224,849,192,886,197.3C923.1,203,960,245,997,229.3C1033.8,213,1071,139,1108,138.7C1144.6,139,1182,213,1218,240C1255.4,267,1292,245,1329,197.3C1366.2,149,1403,75,1422,37.3L1440,0L1440,0L1421.5,0C1403.1,0,1366,0,1329,0C1292.3,0,1255,0,1218,0C1181.5,0,1145,0,1108,0C1070.8,0,1034,0,997,0C960,0,923,0,886,0C849.2,0,812,0,775,0C738.5,0,702,0,665,0C627.7,0,591,0,554,0C516.9,0,480,0,443,0C406.2,0,369,0,332,0C295.4,0,258,0,222,0C184.6,0,148,0,111,0C73.8,0,37,0,18,0L0,0Z"></path></svg>