<?xml version="1.0" standalone="no"?><svg xmlns="http://www.w3.org/2000/svg" viewBox="0 0 1440 320"><path fill="#0099ff" fill-opacity="0.5" d="M0,96L30,112C60,128,120,160,180,165.3C240,171,300,149,360,128C420,107,480,85,540,96C600,107,660,149,720,154.7C780,160,840,128,900,96C960,64,1020,32,1080,58.7C1140,85,1200,171,1260,181.3C1320,192,1380,128,1410,96L1440,64L1440,0L1410,0C1380,0,1320,0,1260,0C1200,0,1140,0,1080,0C1020,0,960,0,900,0C840,0,780,0,720,0C660,0,600,0,540,0C480,0,420,0,360,0C300,0,240,0,180,0C120,0,60,0,30,0L0,0Z"></path></svg>