<?xml version="1.0" standalone="no"?><svg xmlns="http://www.w3.org/2000/svg" viewBox="0 0 1440 320"><path fill="#0099ff" fill-opacity="1" d="M0,256L18.5,224C36.9,192,74,128,111,112C147.7,96,185,128,222,144C258.5,160,295,160,332,138.7C369.2,117,406,75,443,69.3C480,64,517,96,554,133.3C590.8,171,628,213,665,197.3C701.5,181,738,107,775,80C812.3,53,849,75,886,90.7C923.1,107,960,117,997,138.7C1033.8,160,1071,192,1108,181.3C1144.6,171,1182,117,1218,85.3C1255.4,53,1292,43,1329,42.7C1366.2,43,1403,53,1422,58.7L1440,64L1440,320L1421.5,320C1403.1,320,1366,320,1329,320C1292.3,320,1255,320,1218,320C1181.5,320,1145,320,1108,320C1070.8,320,1034,320,997,320C960,320,923,320,886,320C849.2,320,812,320,775,320C738.5,320,702,320,665,320C627.7,320,591,320,554,320C516.9,320,480,320,443,320C406.2,320,369,320,332,320C295.4,320,258,320,222,320C184.6,320,148,320,111,320C73.8,320,37,320,18,320L0,320Z"></path></svg>