<?xml version="1.0" standalone="no"?><svg xmlns="http://www.w3.org/2000/svg" viewBox="0 0 1440 320"><path fill="#a2d9ff" fill-opacity="1" d="M0,192L24,176C48,160,96,128,144,117.3C192,107,240,117,288,149.3C336,181,384,235,432,229.3C480,224,528,160,576,122.7C624,85,672,75,720,85.3C768,96,816,128,864,122.7C912,117,960,75,1008,64C1056,53,1104,75,1152,85.3C1200,96,1248,96,1296,85.3C1344,75,1392,53,1416,42.7L1440,32L1440,320L1416,320C1392,320,1344,320,1296,320C1248,320,1200,320,1152,320C1104,320,1056,320,1008,320C960,320,912,320,864,320C816,320,768,320,720,320C672,320,624,320,576,320C528,320,480,320,432,320C384,320,336,320,288,320C240,320,192,320,144,320C96,320,48,320,24,320L0,320Z"></path></svg>